HIERARCHY
ROOT HipCenter
{
    OFFSET 0.0 0.0 -0.0
    CHANNELS 6 Xposition Yposition Zposition Zrotation Xrotation Yrotation
    JOINT Spine
    {
        OFFSET 0.0 26.441442489624023 0.0
        CHANNELS 3 Zrotation Xrotation Yrotation
        JOINT ShoulderCenter
        {
            OFFSET 0.0 19.745180130004883 0.0
            CHANNELS 3 Zrotation Xrotation Yrotation
            JOINT LeftShoulder
            {
                OFFSET 13.321146011352539 0.0 0.0
                CHANNELS 3 Zrotation Xrotation Yrotation
                JOINT LeftElbow
                {
                    OFFSET 21.55130958557129 0.0 0.0
                    CHANNELS 3 Zrotation Xrotation Yrotation
                    JOINT LeftWrist
                    {
                        OFFSET 20.703102111816406 0.0 0.0
                        CHANNELS 3 Zrotation Xrotation Yrotation
                        JOINT LeftHand
                        {
                            OFFSET 6.6316704750061035 0.0 0.0
                            CHANNELS 3 Zrotation Xrotation Yrotation
                            End Site
                            {
                                OFFSET 2.6526684761047363 0.0 0.0
                            }
                        }
                    }
                }
            }
            JOINT RightShoulder
            {
                OFFSET -13.321146011352539 0.0 0.0
                CHANNELS 3 Zrotation Xrotation Yrotation
                JOINT RightElbow
                {
                    OFFSET -21.55130958557129 0.0 0.0
                    CHANNELS 3 Zrotation Xrotation Yrotation
                    JOINT RightWrist
                    {
                        OFFSET -20.703102111816406 0.0 0.0
                        CHANNELS 3 Zrotation Xrotation Yrotation
                        JOINT RightHand
                        {
                            OFFSET -6.6316704750061035 0.0 0.0
                            CHANNELS 3 Zrotation Xrotation Yrotation
                            End Site
                            {
                                OFFSET -2.6526684761047363 0.0 0.0
                            }
                        }
                    }
                }
            }
            End Site
            {
                OFFSET 0.0 7.898072719573975 0.0
            }
        }
    }
    JOINT LeftHip
    {
        OFFSET 6.540960311889648 0.0 0.0
        CHANNELS 3 Zrotation Xrotation Yrotation
        JOINT LeftKnee
        {
            OFFSET 0.0 -29.80474853515625 0.0
            CHANNELS 3 Zrotation Xrotation Yrotation
            JOINT LeftAnkle
            {
                OFFSET 0.0 -35.112815856933594 0.0
                CHANNELS 3 Zrotation Xrotation Yrotation
                JOINT LeftFoot
                {
                    OFFSET 0.0 -10.248434066772461 0.0
                    CHANNELS 3 Zrotation Xrotation Yrotation
                    End Site
                    {
                        OFFSET 0.0 0.0 4.099373817443848
                    }
                }
            }
        }
    }
    JOINT RightHip
    {
        OFFSET -6.540960311889648 0.0 0.0
        CHANNELS 3 Zrotation Xrotation Yrotation
        JOINT RightKnee
        {
            OFFSET 0.0 -29.80474853515625 0.0
            CHANNELS 3 Zrotation Xrotation Yrotation
            JOINT RightAnkle
            {
                OFFSET 0.0 -35.112815856933594 0.0
                CHANNELS 3 Zrotation Xrotation Yrotation
                JOINT RightFoot
                {
                    OFFSET 0.0 -10.248434066772461 0.0
                    CHANNELS 3 Zrotation Xrotation Yrotation
                    End Site
                    {
                        OFFSET 0.0 0.0 4.099373817443848
                    }
                }
            }
        }
    }
}
MOTION
Frames: 6
Frame Time: 0.03333333333333333
36.401798248291016 16.679969787597656 -378.150390625 -2.121410196719837 15.478543926700846 154.0281855593304 0.3613553926922089 -1.8319871485906427 0.18358171622431987 -4.859116231946317e-07 7.915564306368162e-07 -2.2703625393915976 -87.44214008893383 -31.63152030671529 6.526124503122913 4.132483695446155e-06 -8.457428655135082e-07 26.119744267244123 -2.376197469548657e-06 -52.460771684483454 52.2699315987307 2.5842006786891076e-15 6.3611093629270335e-15 -1.3914926731402888e-15 69.67735236283926 -51.67925504851004 -16.231063657215305 -1.8701931284235776e-06 -1.1834807193071673e-07 -31.593912898704723 -179.99998233460786 -81.77956159088403 136.97548768230962 0.0 -3.1805546814635168e-15 0.0 0.6504090805219314 -8.876133464267449 30.02927429713675 -3.5052336238151467 -2.0957379233199394 -0.32446424740666524 85.50138931761819 64.87539791679963 -75.3721285914567 0.0 0.0 -1.5902773407317584e-15 -9.846515780410702 -5.3019259931266935 -21.812428327961427 7.754910437949678 -2.9819978530815487 0.5250183234035154 -81.56296276988728 66.0337696910675 69.98217649208118 -3.1805546814635168e-15 0.0 0.0
36.410980224609375 16.679950714111328 -378.1448974609375 -1.9874396245655412 15.542519990996327 153.99910063439518 0.22710228616903091 -2.0056775247294794 0.19304036953959294 -1.0086098798379031e-06 -2.637433570246264e-07 -2.3750441426236777 -88.38496896878047 -27.657224786921876 7.8368708870494155 -2.3955816840799095e-06 -2.7953684579072994e-07 23.61471714636921 -2.549279399618472e-06 -57.794467855939146 56.838440094031164 -2.1866313435061676e-15 -1.1379602174660566e-32 5.963540027744094e-16 69.2868103220804 -51.92460618881899 -16.902007476859666 -1.607574144086732e-06 2.1648752838350555e-06 -31.561539455310818 -179.99997421329635 -78.84364304403242 136.08195510687418 0.0 -3.1805546814635164e-15 0.0 0.7305727184491578 -8.811444407586338 30.06598531256 -3.691950555517766 -2.371640449372915 -0.3772278922585221 86.31538482435836 64.81638411193452 -75.99735147338234 1.5902773407317584e-15 -6.361109362927033e-15 1.5902773407317584e-15 -9.802772902562467 -5.177880845490517 -21.825195964924553 7.905068915046195 -3.03932569207316 0.540964369871851 -81.70085246796843 66.10443593789094 70.02593687234334 0.0 0.0 -3.1805546814635168e-15
36.485870361328125 16.61981964111328 -378.0889892578125 -2.024714666266457 15.469465639818036 154.07067325761346 0.3762541888531202 -1.9214442780404557 0.19185396156103318 -1.3903115531908799e-08 -3.6473731588142743e-07 -2.467291406395033 -88.34044481582389 -27.874921256045518 7.664132255502088 3.654639006834052e-06 7.649936663185662e-07 23.6943979821948 -1.8145074442236928e-06 -45.8178167621341 60.596042268505116 -1.5902773407317584e-15 0.0 0.0 68.8242382741763 -52.369963187823544 -16.838176150981415 3.1054407642342705e-07 1.6388350151234633e-06 -32.07334840476862 -179.99997247484356 -80.20918553679105 139.60132552377436 -6.361109362927031e-15 1.7655625192200634e-31 -3.1805546814635156e-15 0.8872952674347139 -8.851383820004276 30.111312749654747 -3.9261890704514455 -2.465160919385623 -0.39279624438343697 86.77951943657843 64.73093854807311 -76.47911762108161 -1.987846675914698e-15 -2.758691436281349e-32 1.5902773407317584e-15 -9.50959003341593 -4.9055921424957045 -21.843680454233525 7.565108223311298 -3.7462371887885757 0.6560605347581447 -82.16444849950044 66.27357365478501 70.72255018691281 8.827812596100317e-32 6.3611093629270335e-15 -1.5902773407317584e-15
36.51927185058594 16.638500213623047 -378.0816955566406 -2.022851239693953 15.439234856650854 154.04936630788808 0.4281742438612616 -1.8565356966397428 0.18787083936011045 6.175845206681701e-07 3.246851445663894e-09 -2.477726506136163 -88.42273041098855 -27.795015593366813 7.599982461875709 -4.181576496337611e-08 2.3015558772733613e-06 23.007530588818035 -6.052533285203023e-06 -54.52276211983441 59.133291976764305 3.975693351829396e-15 -2.758691436281349e-32 -7.951386703658792e-16 68.92971636015864 -52.39419556862628 -16.648167760401478 -1.7783185487023493e-06 2.411494167575425e-06 -32.06583445802245 -179.9999942536071 -83.14384630322799 135.23758500987825 -6.3611093629270335e-15 -3.531125038440127e-31 6.3611093629270335e-15 0.7868795486491746 -8.762445309081176 30.12246572848227 -3.9969595174666654 -2.7939499054210883 -0.4485667610772266 87.26613391753868 64.73976064207802 -76.94069231558161 -3.975693351829396e-16 6.3611093629270335e-15 2.2069531490250793e-32 -9.521511676174446 -4.89360748869625 -21.845013219441284 7.72400407627203 -3.8390868137382324 0.6824076459543856 -82.4582120519314 66.31362591125749 70.88749975655912 3.1805546814635168e-15 6.620859447075238e-32 2.3854160110976376e-15
36.52516174316406 16.63865089416504 -378.107177734375 -1.809281723704762 15.440632820667815 154.24512513469148 0.21938112845351815 -1.999335616610671 0.18573116456036856 1.4334531507345874e-07 1.4945706311472007e-06 -2.7798076713304325 -87.9046312620643 -27.567116709345918 8.083371393581986 1.049526822436738e-06 -1.7243819020900374e-07 23.013098316174336 -4.269075209976563e-06 -52.872560285967396 63.63725623644233 0.0 0.0 0.0 66.60378020072402 -56.88188825862143 -18.952530335355938 -1.3608058701399738e-06 1.8979970727156963e-06 -32.6259535907885 -3.860550763240332e-06 -60.03395948667027 -25.327940135230737 6.3611093629270335e-15 -6.3611093629270335e-15 3.531125038440127e-31 0.9506824985434893 -8.71801811019477 30.049745212360037 -4.137571991114229 -2.7931938792837943 -0.45998330452715314 87.4812026787465 64.55339942929444 -76.90442940689462 0.0 0.0 0.0 -9.33438477123018 -4.863478145029499 -21.897614105267255 7.636263940686868 -3.676788189789953 0.6459309660812195 -82.06152360785323 66.4597769763406 70.60414907767174 1.7655625192200634e-31 -6.3611093629270335e-15 3.1805546814635168e-15
36.52830123901367 16.640439987182617 -378.10760498046875 -1.9055295439724613 15.44387299715679 154.28502169601032 0.46000995772220654 -1.8744781708210974 0.18542413228069904 3.9407166337243444e-07 -8.962146428328162e-07 -2.629606817358367 -88.85596760456268 -26.673444945262542 7.620264462737384 -3.172900163899127e-07 1.2980555041819408e-06 23.06225354080585 -4.7841336259403344e-06 -58.54172282738279 60.50956654604463 -2.3854160110976384e-15 -2.4828222926532145e-32 1.1927080055488192e-15 67.33210566350857 -55.650163097538 -18.07395775316715 1.270276678250412e-06 8.821261278656838e-08 -32.194879506099284 179.99999908237177 -79.53417502548811 141.8908526039043 -1.5448672043175555e-31 -3.1805546814635176e-15 -5.565970692561156e-15 0.886284738513679 -8.794488332172682 30.043795291372124 -4.079013248987435 -2.64086382673985 -0.4314960748837886 87.26704683596458 64.63929103233951 -76.7565471716288 -1.1927080055488188e-15 0.0 0.0 -9.368938020830477 -5.096693206978767 -21.883366608849755 7.4492445036949695 -3.4265937780162234 0.5988076656407809 -81.88564962730473 66.34214987760508 70.45258630583606 0.0 0.0 -1.5902773407317584e-15
